<?xml version="1.0" encoding="utf-8"?>
<!-- Generator: Adobe Illustrator 19.0.0, SVG Export Plug-In . SVG Version: 6.00 Build 0)  -->
<svg version="1.1" id="Capa_1" xmlns="http://www.w3.org/2000/svg" xmlns:xlink="http://www.w3.org/1999/xlink" x="0px" y="0px"
	 viewBox="249.3 -229.2 393.9 394.5" style="enable-background:new 249.3 -229.2 393.9 394.5;" xml:space="preserve">
<style type="text/css">
	.st0{fill:#FFFFFF;stroke:#FFFFFF;stroke-width:76;stroke-miterlimit:10;}
	.st1{stroke:#000000;stroke-miterlimit:10;}
</style>
<g>
	<path class="st0" d="M595.1-187.6c-3.8-2.4-8-3.6-12.2-3.6c-7.2,0-14.3,3.6-18.6,10.1L391.6,68.1L324.7-8.1
		c-9.1-8.4-23.1-7.8-31.5,1.2c-8.4,9-7.8,23.1,1.2,31.4l80.3,91.7l1.9,2.2l2,2.3l0.8,0.5l1.7,1.7l4.4,2l1,0.5l6.8,1.2l0.3-0.1
		c6,0,12-2.2,16.5-7l1.8-2.9l0.1-0.1l189.4-273.3C608.3-167,605.4-180.8,595.1-187.6z"/>
	<path class="st1" d="M595.1-187.6c-3.8-2.4-8-3.6-12.2-3.6c-7.2,0-14.3,3.6-18.6,10.1L391.6,68.1L324.7-8.1
		c-9.1-8.4-23.1-7.8-31.5,1.2c-8.4,9-7.8,23.1,1.2,31.4l80.3,91.7l1.9,2.2l2,2.3l0.8,0.5l1.7,1.7l4.4,2l1,0.5l6.8,1.2l0.3-0.1
		c6,0,12-2.2,16.5-7l1.8-2.9l0.1-0.1l189.4-273.3C608.3-167,605.4-180.8,595.1-187.6z"/>
</g>
</svg>
