<?xml version="1.0" encoding="utf-8"?>
<!-- Generator: Adobe Illustrator 21.1.0, SVG Export Plug-In . SVG Version: 6.00 Build 0)  -->
<svg version="1.1" id="Layer_1" xmlns="http://www.w3.org/2000/svg" xmlns:xlink="http://www.w3.org/1999/xlink" x="0px" y="0px"
	 viewBox="0 0 320 62.6" style="enable-background:new 0 0 320 62.6;" xml:space="preserve">
<style type="text/css">
	.st0{fill:#3671C6;}
	.st1{fill:#FFFFFF;}
</style>
<title>logo</title>
<path class="st0" d="M82.7,49.2h-7.3V13.6h7.3V49.2z"/>
<path class="st0" d="M112.7,33.9v15.3h-7V33.9c0-4.2-2.1-6.3-6-6.3c-2.2,0-4.4,0.7-6.1,2.2v19.5h-7V21.8h7v1.7
	c2.2-1.5,4.7-2.3,7.4-2.2C109,21.3,112.7,25,112.7,33.9z"/>
<path class="st0" d="M124.6,27.6v9.7c0,4.9,0.8,6.3,4.4,6.3c1.1,0,2.2-0.1,3.2-0.2v5.3c-2,0.7-4.2,1.1-6.4,1c-4.6,0-8.3-2.9-8.3-8.6
	V27.6h-3.9v-5.8h3.9V11.1h7.1v10.7h7.7v5.8C132.3,27.6,124.6,27.6,124.6,27.6z"/>
<path class="st0" d="M138.7,37.5c0.7,3.7,4.1,6.3,7.8,6.1c2.8,0,5.4-1.2,7.1-3.4l4.5,3.8c-2.5,3.4-7,5.7-12.4,5.7
	c-7.6,0.1-13.9-5.9-14-13.5c0-0.2,0-0.4,0-0.6c0-7.9,5.8-14.2,14-14.2c8.4,0,13.3,6.1,13.3,14.6c0,0.6-0.1,1.1-0.1,1.6L138.7,37.5z
	 M138.8,33h13.6c-0.2-3.1-1.9-6.1-6.6-6.1C142.2,26.9,139.3,29.5,138.8,33L138.8,33z"/>
<path class="st0" d="M161.1,11.1h7.1v38.1h-7.1V11.1z"/>
<path class="st0" d="M171.8,11.1h7.1v38.1h-7.1V11.1z"/>
<path class="st0" d="M182,14.7c0-2.2,1.8-4.1,4-4.1s4,1.9,4,4.1l0,0c0,2.2-1.7,4-3.9,4.1H186C183.8,18.8,182,16.9,182,14.7z
	 M182.6,21.8h7v27.5h-7V21.8z"/>
<path class="st0" d="M220.7,21.8V44c0,7.1-3.9,14.8-14.4,14.8C202.2,59,198,58.4,194,57l1.4-5.2c3,1,6.1,1.5,9.3,1.6
	c4.2,0,8.5-2.5,8.7-6.8c-2.4,1.3-5,1.9-7.7,1.9c-7.7,0-13.9-5.5-13.9-13.6s6.2-13.5,13.9-13.5c2.8,0,5.6,0.7,8,2.1v-1.6h7V21.8z
	 M206.9,42.1c2.4,0.1,4.8-0.7,6.8-2.2V29.8c-1.9-1.5-4.3-2.3-6.8-2.2c-4.7,0-8.2,3.1-8.2,7.3C198.7,39.2,202.2,42.1,206.9,42.1z"/>
<path class="st0" d="M229.8,37.5c0.7,3.7,4.1,6.3,7.8,6.1c2.8,0,5.4-1.2,7.1-3.4l4.5,3.7c-2.5,3.4-7,5.7-12.4,5.7
	c-7.6,0.1-13.9-5.9-14-13.5c0-0.2,0-0.4,0-0.6c0-7.9,5.8-14.2,14-14.2c8.4,0,13.3,6.1,13.3,14.6c0,0.6-0.1,1.1-0.1,1.6H229.8z
	 M229.8,33h13.6c-0.2-3.1-1.9-6.1-6.6-6.1C233.3,26.9,230.3,29.5,229.8,33L229.8,33z"/>
<path class="st0" d="M295.8,33.9v15.3h-7V33.9c0-4.2-2.1-6.3-6-6.3c-2,0-4,0.7-5.5,2.2c0.3,1.4,0.4,2.8,0.3,4.2v15.2h-7V33.9
	c0-4.2-1.9-6.3-5.5-6.3c-2.2-0.1-4.3,0.7-5.9,2.2v19.5h-7.1V21.8h7.1v1.7c2.1-1.5,4.6-2.2,7.1-2.2c4.2,0,7.2,1.1,9.1,3.5
	c2.3-2.2,5.4-3.5,8.6-3.5C292.1,21.3,295.8,25,295.8,33.9z"/>
<path class="st0" d="M299.7,41.8c2.9,1.4,6.1,2.2,9.4,2.2c3.2,0,4.5-1.2,4.5-2.6c0-1.6-1.6-2.3-5.8-3.2c-5.9-1.3-10.2-3.2-10.2-8.5
	c0-5,4.1-8.4,10.5-8.4c3.7,0,7.3,0.8,10.7,2.2l-2.3,5.1c-2.7-1.1-5.6-1.7-8.5-1.8c-2.7,0-4,1-4,2.4s1.7,2.2,6.1,3.1
	c6.3,1.3,10,3.6,10,8.6c0,5.2-4,8.6-11,8.6c-4.1,0.2-8.2-0.8-11.9-2.6L299.7,41.8z"/>
<path class="st0" d="M62.6,62.6H0V0h62.6V62.6z"/>
<path class="st1" d="M32,27.3l3.3,3.3c0.4,0.4,0.4,1,0,1.4L32,35.3c-0.4,0.4-1,0.4-1.4,0L27.3,32c-0.4-0.4-0.4-1,0-1.4l3.3-3.3
	C31,26.9,31.6,26.9,32,27.3z"/>
<path class="st1" d="M15.3,31.3c0-6.9,4.5-13.1,11.1-15.2v-2.6c-9.8,2.7-15.6,12.9-12.9,22.7c1.7,6.2,6.6,11.1,12.9,12.9v-2.6
	C19.8,44.4,15.3,38.2,15.3,31.3z"/>
<path class="st1" d="M49.7,31.3c0-8.3-5.5-15.5-13.5-17.8v2.6c8.4,2.8,13,11.8,10.2,20.2c-1.6,4.8-5.4,8.6-10.2,10.2V49
	C44.2,46.8,49.7,39.6,49.7,31.3z"/>
</svg>
