<?xml version="1.0" encoding="iso-8859-1"?>
<!-- Generator: Adobe Illustrator 19.1.0, SVG Export Plug-In . SVG Version: 6.00 Build 0)  -->
<svg version="1.1" id="Capa_1" xmlns="http://www.w3.org/2000/svg" xmlns:xlink="http://www.w3.org/1999/xlink" x="0px" y="0px"
	 viewBox="0 0 365.183 365.183" style="enable-background:new 0 0 365.183 365.183;" xml:space="preserve">
<g>
	<g>
		<path fill="#3671c6" d="M223.216,72.573v-5v-15V40.294C223.216,18.076,205.14,0,182.922,0h-0.662c-22.218,0-40.294,18.076-40.294,40.294v12.279
			v15v5h-96.25v292.61h273.75V72.573H223.216z M156.966,40.294C156.966,26.347,168.313,15,182.26,15h0.662
			c13.947,0,25.294,11.347,25.294,25.294v12.279h-51.25L156.966,40.294L156.966,40.294z M208.216,67.573v37.5h-51.25v-37.5H208.216z
			 M304.466,350.184H60.716V87.573h81.25v32.5h81.25v-32.5h81.25L304.466,350.184L304.466,350.184z"/>
		<path fill="#3671c6" d="M181.066,195.503l9.807,11.35l25.647-22.16c-8.621,60.094-60.433,106.434-122.873,106.434v15
			c70.403,0,128.753-52.563,137.889-120.504l22.313,25.823l11.35-9.807l-38.999-45.134L181.066,195.503z"/>
		<polygon fill="#3671c6" points="103.06,231.101 122.151,212.01 141.242,231.101 151.849,220.493 132.758,201.403 151.849,182.313 
			141.242,171.705 122.151,190.796 103.06,171.705 92.454,182.313 111.544,201.403 92.454,220.493 		"/>
		<polygon fill="#3671c6" points="228.05,258.361 217.443,268.969 236.534,288.059 217.443,307.149 228.05,317.757 247.141,298.666 
			266.231,317.757 276.838,307.149 257.748,288.059 276.838,268.969 266.231,258.361 247.141,277.452 		"/>
	</g>
	<g>
	</g>
	<g>
	</g>
	<g>
	</g>
	<g>
	</g>
	<g>
	</g>
	<g>
	</g>
	<g>
	</g>
	<g>
	</g>
	<g>
	</g>
	<g>
	</g>
	<g>
	</g>
	<g>
	</g>
	<g>
	</g>
	<g>
	</g>
	<g>
	</g>
</g>
<g>
</g>
<g>
</g>
<g>
</g>
<g>
</g>
<g>
</g>
<g>
</g>
<g>
</g>
<g>
</g>
<g>
</g>
<g>
</g>
<g>
</g>
<g>
</g>
<g>
</g>
<g>
</g>
<g>
</g>
</svg>
